<svg xmlns="http://www.w3.org/2000/svg" viewBox="0 0 400 300" width="400" height="300">
<defs>
  <linearGradient id="bg" x1="0" y1="0" x2="1" y2="1">
    <stop offset="0" stop-color="#eff8ff"/><stop offset="1" stop-color="#f0fdfa"/>
  </linearGradient>
  <linearGradient id="steel" x1="0" y1="0" x2="1" y2="1">
    <stop offset="0" stop-color="#e6e9ed"/><stop offset="0.5" stop-color="#b9c0c8"/><stop offset="1" stop-color="#8f98a3"/>
  </linearGradient>
  <clipPath id="mouth"><path d="M58,96 Q200,58 342,96 Q352,178 200,238 Q48,178 58,96 Z"/></clipPath>
</defs>
<rect width="400" height="300" fill="url(#bg)"/><rect x="0" y="160" width="400" height="140" fill="#f3e2cc"/><path d="M0,212 Q200,206 400,212" stroke="#ead2b4" stroke-width="2" fill="none"/><path d="M50,150 q0,-46 40,-48 q40,2 40,48 l-4,12 q-4,52 -14,70 q-8,-30 -10,-58 l-4,0 q-2,28 -10,58 q-10,-18 -14,-70 z" fill="#fbfaf6" stroke="#d9d4ca" stroke-width="1.5" transform="rotate(0 90 150)"/><path d="M270,150 q0,-46 40,-48 q40,2 40,48 l-4,12 q-4,52 -14,70 q-8,-30 -10,-58 l-4,0 q-2,28 -10,58 q-10,-18 -14,-70 z" fill="#fbfaf6" stroke="#d9d4ca" stroke-width="1.5" transform="rotate(0 310 150)"/><rect x="190" y="150" width="20" height="24" rx="3" fill="#b9c0c8"/><path d="M186,172 L214,172 L210,258 Q200,268 190,258 Z" fill="url(#steel)" stroke="#8f98a3" stroke-width="1.2"/><path d="M187,180 L213,186" stroke="#7d8692" stroke-width="2"/><path d="M187,191 L213,197" stroke="#7d8692" stroke-width="2"/><path d="M187,202 L213,208" stroke="#7d8692" stroke-width="2"/><path d="M187,213 L213,219" stroke="#7d8692" stroke-width="2"/><path d="M187,224 L213,230" stroke="#7d8692" stroke-width="2"/><path d="M187,235 L213,241" stroke="#7d8692" stroke-width="2"/><path d="M187,246 L213,252" stroke="#7d8692" stroke-width="2"/><path d="M160,152 Q160,104 200,102 Q240,104 240,152 Q220,160 200,158 Q180,160 160,152 Z" fill="#fbfaf6" stroke="#d9d4ca" stroke-width="1.5"/><path d="M0,148 Q100,138 200,148 T400,148 L400,172 Q300,164 200,172 T0,172 Z" fill="#f2a5b2" opacity="0.88" stroke="#e48c9c" stroke-width="1.5"/></svg>